<?xml version="1.0" standalone="no"?>
<!DOCTYPE svg PUBLIC "-//W3C//DTD SVG 20010904//EN"
 "http://www.w3.org/TR/2001/REC-SVG-20010904/DTD/svg10.dtd">
<svg version="1.0" xmlns="http://www.w3.org/2000/svg"
 width="100.000000pt" height="100.000000pt" viewBox="0 0 100.000000 100.000000"
 preserveAspectRatio="xMidYMid meet">

<g transform="translate(0.000000,100.000000) scale(0.100000,-0.100000)"
fill="#ffe57e" stroke="none">
<path d="M20 860 c-17 -17 -20 -33 -20 -100 0 -113 8 -120 140 -120 113 0 140
14 140 70 l0 30 60 0 60 0 0 -30 c0 -56 27 -70 140 -70 113 0 140 14 140 70
l0 30 60 0 c75 0 100 -20 100 -80 l0 -40 -40 0 c-64 0 -80 -24 -80 -120 0 -96
16 -120 80 -120 40 0 40 0 40 -40 0 -60 -25 -80 -100 -80 -60 0 -60 0 -60 30
0 56 -27 70 -140 70 -113 0 -140 -14 -140 -70 l0 -30 -60 0 -60 0 0 30 c0 56
-27 70 -140 70 -132 0 -140 -7 -140 -120 0 -113 8 -120 140 -120 113 0 140 14
140 70 l0 30 60 0 c60 0 60 0 60 -30 0 -56 27 -70 140 -70 113 0 140 14 140
70 0 30 0 30 60 30 100 0 140 34 140 120 l0 40 40 0 c64 0 80 24 80 120 0 96
-16 120 -80 120 -40 0 -40 0 -40 40 0 85 -40 120 -140 120 l-60 0 0 30 c0 56
-27 70 -140 70 -113 0 -140 -14 -140 -70 l0 -30 -60 0 -60 0 0 30 c0 56 -27
70 -140 70 -87 0 -103 -3 -120 -20z m215 -100 l0 -75 -95 0 -95 0 -3 64 c-4
94 -7 92 100 89 l93 -3 0 -75z m400 0 l0 -75 -95 0 -95 0 -3 64 c-4 94 -7 92
100 89 l93 -3 0 -75z m320 -260 l0 -75 -95 0 -95 0 -3 64 c-4 94 -7 92 100 89
l93 -3 0 -75z m-720 -260 l0 -75 -95 0 -95 0 -3 64 c-4 94 -7 92 100 89 l93
-3 0 -75z m400 0 l0 -75 -95 0 -95 0 -3 64 c-4 94 -7 92 100 89 l93 -3 0 -75z"/>
</g>
</svg>
