<?xml version="1.0" standalone="no"?>
<!DOCTYPE svg PUBLIC "-//W3C//DTD SVG 20010904//EN"
 "http://www.w3.org/TR/2001/REC-SVG-20010904/DTD/svg10.dtd">
<svg version="1.0" xmlns="http://www.w3.org/2000/svg"
 width="1868.000000pt" height="2048.000000pt" viewBox="0 0 1868.000000 2048.000000"
 preserveAspectRatio="xMidYMid meet">

<g transform="translate(0.000000,2048.000000) scale(0.100000,-0.100000)"
fill="#ffe57e" stroke="none">
<path d="M7503 18215 c-243 -44 -455 -181 -590 -380 -55 -81 -85 -144 -119
-245 l-29 -85 -3 -1836 -2 -1835 24 -97 c62 -242 221 -450 440 -572 86 -47
225 -91 331 -104 57 -7 363 -11 828 -11 l737 0 0 -1455 0 -1455 -1872 -2
c-2119 -4 -1907 5 -2103 -87 -235 -112 -400 -306 -482 -568 l-28 -88 -3 -972
-3 -972 -812 -3 c-808 -3 -812 -3 -892 -26 -317 -89 -564 -338 -647 -652 l-23
-85 0 -1820 0 -1820 23 -85 c24 -93 83 -224 132 -296 79 -114 216 -232 345
-297 28 -13 88 -38 135 -53 l85 -29 1836 -3 1835 -2 99 25 c367 93 635 403
675 781 7 67 10 668 8 1844 l-4 1745 -22 84 c-28 104 -88 233 -146 315 -96
135 -253 256 -410 317 -148 57 -176 59 -1007 59 l-759 0 0 923 c0 802 2 931
16 982 39 152 168 281 319 320 55 13 472 15 3955 13 l3895 -3 75 -36 c90 -43
158 -103 204 -182 67 -113 66 -95 66 -1106 l0 -911 -782 0 c-724 0 -790 -2
-873 -19 -177 -36 -331 -120 -458 -248 -122 -124 -198 -256 -239 -418 l-23
-90 0 -1815 0 -1815 23 -85 c75 -285 280 -519 545 -620 162 -63 44 -60 2018
-60 l1806 0 97 25 c363 92 629 393 676 766 14 113 14 3462 0 3575 -15 116 -35
187 -81 283 -128 269 -370 456 -654 506 -73 13 -211 15 -846 15 l-758 0 -3
963 c-3 953 -4 963 -25 1039 -93 330 -310 555 -630 655 l-88 28 -1872 3 -1873
2 0 1455 0 1454 793 3 792 4 96 26 c339 92 591 357 660 693 19 92 19 151 17
1902 l-3 1808 -28 88 c-99 318 -325 539 -645 630 l-77 22 -1800 2 c-1445 1
-1814 -1 -1872 -12z m3630 -450 c173 -45 300 -175 336 -345 9 -41 11 -488 9
-1810 l-3 -1755 -23 -57 c-51 -126 -150 -222 -280 -272 l-57 -21 -1715 -3
c-1150 -2 -1741 1 -1795 8 -156 20 -287 114 -356 255 l-34 70 0 1805 0 1805
32 67 c58 122 169 218 292 250 61 16 197 17 1801 17 1508 1 1743 -1 1793 -14z
m-4498 -10780 c150 -39 260 -141 319 -294 l21 -56 3 -1725 c2 -1185 -1 -1747
-8 -1795 -23 -151 -117 -278 -255 -346 l-70 -34 -1805 0 -1805 0 -68 32 c-80
38 -166 116 -207 188 -63 110 -60 10 -60 1910 0 1886 -3 1780 56 1897 52 103
171 194 289 224 39 10 441 12 1790 13 1534 1 1748 -1 1800 -14z m9027 -13
c126 -51 222 -150 270 -277 l23 -60 3 -1725 c2 -1183 -1 -1747 -8 -1795 -23
-151 -121 -283 -257 -348 l-68 -32 -1806 0 -1805 0 -76 38 c-126 62 -218 179
-247 315 -15 71 -16 3464 -1 3543 33 171 167 313 335 355 39 10 433 12 1815
11 l1765 -2 57 -23z"/>
</g>
</svg>
