<?xml version="1.0" standalone="no"?>
<!DOCTYPE svg PUBLIC "-//W3C//DTD SVG 20010904//EN"
 "http://www.w3.org/TR/2001/REC-SVG-20010904/DTD/svg10.dtd">
<svg version="1.0" xmlns="http://www.w3.org/2000/svg"
 width="100.000000pt" height="100.000000pt" viewBox="0 0 100.000000 100.000000"
 preserveAspectRatio="xMidYMid meet">

<g transform="translate(0.000000,100.000000) scale(0.100000,-0.100000)"
fill="#ffe57e" stroke="none">
<path d="M350 951 c-47 -15 -90 -41 -106 -66 -9 -14 -32 -33 -51 -42 -90 -42
-136 -176 -98 -284 14 -39 14 -47 0 -81 -8 -21 -15 -48 -15 -59 0 -34 32 -91
61 -107 24 -14 26 -21 25 -68 -1 -62 25 -98 85 -114 21 -6 44 -21 54 -36 32
-49 128 -70 173 -38 20 14 24 14 44 0 45 -32 141 -11 173 37 11 17 29 28 57
32 22 4 54 19 72 35 27 25 31 34 31 82 0 39 4 56 17 66 47 35 61 115 30 166
-17 28 -17 32 0 80 24 70 22 122 -6 183 -22 47 -91 113 -118 113 -4 0 -27 20
-51 44 -59 62 -155 85 -205 50 -20 -14 -24 -14 -44 0 -23 17 -85 20 -128 7z
m120 -50 c5 -11 10 -74 10 -140 l0 -121 -30 0 c-29 0 -30 1 -30 50 l0 50 -40
0 c-27 0 -47 7 -60 20 -11 11 -29 20 -40 20 -26 0 -60 -34 -60 -60 0 -26 34
-60 60 -60 11 0 29 9 40 20 11 11 29 20 40 20 17 0 20 -7 20 -50 l0 -50 50 0
50 0 0 -80 0 -80 -70 0 -70 0 0 -60 c0 -47 -4 -64 -20 -80 -11 -11 -20 -29
-20 -40 0 -26 34 -60 60 -60 11 0 29 9 40 20 25 25 25 55 0 80 -13 13 -20 33
-20 60 l0 40 50 0 50 0 0 -144 c0 -118 -3 -147 -16 -160 -33 -34 -128 -8 -140
38 -4 18 -15 25 -41 29 -42 7 -83 42 -83 71 0 12 7 33 15 49 14 26 13 28 -19
41 -40 17 -76 61 -76 93 0 14 8 38 17 54 21 36 72 40 103 9 11 -11 29 -20 40
-20 26 0 60 34 60 60 0 26 -34 60 -60 60 -11 0 -29 -9 -40 -20 -13 -13 -33
-20 -60 -20 -37 0 -40 2 -49 38 -14 47 -14 77 0 127 13 46 77 115 108 115 11
0 21 6 21 13 0 58 183 117 210 68z m210 -11 c16 -12 33 -32 36 -45 4 -15 15
-25 34 -28 42 -9 96 -62 116 -112 19 -51 15 -112 -12 -168 -16 -34 -16 -36 5
-65 24 -34 27 -69 9 -107 -17 -37 -28 -31 -28 15 l0 40 -90 0 -90 0 0 30 c0
17 9 39 20 50 11 11 20 29 20 40 0 26 -34 60 -60 60 -11 0 -29 -9 -40 -20 -11
-11 -20 -29 -20 -40 0 -11 9 -29 20 -40 15 -15 20 -33 20 -70 l0 -50 90 0 90
0 0 -45 c0 -24 5 -55 11 -69 26 -56 -22 -106 -100 -106 -22 0 -30 -5 -35 -25
-12 -47 -106 -73 -140 -39 -11 11 -16 35 -16 80 l0 64 40 0 c27 0 47 -7 60
-20 11 -11 29 -20 40 -20 26 0 60 34 60 60 0 26 -34 60 -60 60 -11 0 -29 -9
-40 -20 -13 -13 -33 -20 -60 -20 l-40 0 0 210 0 210 80 0 c67 0 83 -3 100 -20
11 -11 29 -20 40 -20 26 0 60 34 60 60 0 11 -9 29 -20 40 -11 11 -29 20 -40
20 -11 0 -29 -9 -40 -20 -17 -17 -33 -20 -100 -20 l-80 0 0 71 c0 101 9 113
76 106 31 -3 66 -14 84 -27z m-384 -161 c10 -17 -13 -36 -27 -22 -12 12 -4 33
11 33 5 0 12 -5 16 -11z m460 0 c10 -17 -13 -36 -27 -22 -12 12 -4 33 11 33 5
0 12 -5 16 -11z m-100 -180 c10 -17 -13 -36 -27 -22 -12 12 -4 33 11 33 5 0
12 -5 16 -11z m-360 -20 c10 -17 -13 -36 -27 -22 -12 12 -4 33 11 33 5 0 12
-5 16 -11z m80 -260 c10 -17 -13 -36 -27 -22 -12 12 -4 33 11 33 5 0 12 -5 16
-11z m300 0 c10 -17 -13 -36 -27 -22 -12 12 -4 33 11 33 5 0 12 -5 16 -11z"/>
</g>
</svg>
