<?xml version="1.0" standalone="no"?>
<!DOCTYPE svg PUBLIC "-//W3C//DTD SVG 20010904//EN"
 "http://www.w3.org/TR/2001/REC-SVG-20010904/DTD/svg10.dtd">
<svg version="1.0" xmlns="http://www.w3.org/2000/svg"
 width="60.000000pt" height="60.000000pt" viewBox="0 0 60.000000 60.000000"
 preserveAspectRatio="xMidYMid meet">

<g transform="translate(0.000000,60.000000) scale(0.100000,-0.100000)"
fill="#ffe57e" stroke="none">
<path d="M40 581 c-6 -12 -10 -107 -10 -238 l0 -219 63 -62 63 -62 102 0 c61
0 102 4 102 10 0 6 -38 10 -95 10 l-95 0 0 39 c0 57 -8 71 -42 71 -17 0 -27
-4 -23 -10 3 -6 15 -10 26 -10 15 0 19 -7 19 -37 l0 -37 -50 49 -50 50 2 220
3 220 210 0 210 0 3 -156 2 -156 -60 -7 c-34 -4 -68 -10 -76 -13 -20 -7 -19
-125 2 -169 17 -35 69 -74 98 -74 29 0 73 28 97 61 30 42 40 158 15 178 -21
17 -33 7 -16 -14 19 -22 8 -120 -17 -153 -34 -45 -64 -58 -103 -42 -48 20 -70
63 -70 136 l0 61 58 7 c32 4 66 4 75 0 15 -6 17 10 17 168 0 122 -4 178 -12
186 -9 9 -73 12 -225 12 -200 0 -213 -1 -223 -19z"/>
<path d="M124 526 c-3 -7 -4 -31 -2 -52 l3 -39 128 -3 c82 -2 127 1 127 8 0 6
-44 10 -120 10 l-120 0 0 35 0 35 125 0 c118 0 125 -1 125 -20 0 -11 5 -20 11
-20 6 0 9 12 7 28 l-3 27 -138 3 c-111 2 -138 0 -143 -12z"/>
<path d="M90 380 c0 -6 65 -10 175 -10 110 0 175 4 175 10 0 6 -65 10 -175 10
-110 0 -175 -4 -175 -10z"/>
<path d="M133 299 c14 -8 22 -8 30 0 8 8 3 11 -18 11 -26 -1 -28 -2 -12 -11z"/>
<path d="M215 300 c3 -5 46 -10 95 -10 49 0 92 5 95 10 4 6 -30 10 -95 10 -65
0 -99 -4 -95 -10z"/>
<path d="M130 210 c0 -5 9 -10 20 -10 11 0 20 5 20 10 0 6 -9 10 -20 10 -11 0
-20 -4 -20 -10z"/>
<path d="M210 210 c0 -5 23 -10 50 -10 28 0 50 5 50 10 0 6 -22 10 -50 10 -27
0 -50 -4 -50 -10z"/>
<path d="M460 145 c-7 -9 -21 -13 -31 -10 -23 8 -25 -8 -3 -25 13 -11 20 -9
47 18 23 23 27 32 16 32 -9 0 -22 -7 -29 -15z"/>
<path d="M215 110 c3 -5 24 -10 45 -10 21 0 42 5 45 10 4 6 -13 10 -45 10 -32
0 -49 -4 -45 -10z"/>
</g>
</svg>
